<svg xmlns="http://www.w3.org/2000/svg" width="21.23" height="16" viewBox="0 0 21.23 16">
  <g id="Group_12" data-name="Group 12" transform="translate(-40.066 -473.5)">
    <path id="Path_1" data-name="Path 1" d="M-1233.7,1136.144h-17.23a2,2,0,0,1-2-2,2,2,0,0,1,2-2h17.23a2,2,0,0,1,2,2A2,2,0,0,1-1233.7,1136.144Z" transform="translate(1293 -658.644)" fill="#707070"/>
    <path id="Path_2" data-name="Path 2" d="M-1233.7,1136.144h-17.23a2,2,0,0,1-2-2,2,2,0,0,1,2-2h17.23a2,2,0,0,1,2,2A2,2,0,0,1-1233.7,1136.144Z" transform="translate(1293 -652.644)" fill="#707070"/>
    <path id="Path_3" data-name="Path 3" d="M-1233.7,1136.144h-17.23a2,2,0,0,1-2-2,2,2,0,0,1,2-2h17.23a2,2,0,0,1,2,2A2,2,0,0,1-1233.7,1136.144Z" transform="translate(1293 -646.644)" fill="#707070"/>
  </g>
</svg>
